<?xml version="1.0" standalone="no"?>
<!DOCTYPE svg PUBLIC "-//W3C//DTD SVG 20010904//EN"
 "http://www.w3.org/TR/2001/REC-SVG-20010904/DTD/svg10.dtd">
<svg version="1.0" xmlns="http://www.w3.org/2000/svg"
 width="12123.000000pt" height="12123.000000pt" viewBox="0 0 12123.000000 12123.000000"
 preserveAspectRatio="xMidYMid meet">
<metadata>
Created by potrace 1.11, written by Peter Selinger 2001-2013
</metadata>
<g transform="translate(0.000000,12123.000000) scale(0.100000,-0.100000)"
fill="#000000" stroke="none">
<path d="M24229 112910 c-45 -35 -745 -589 -784 -622 -11 -9 -49 -39 -85 -67
-36 -28 -69 -54 -75 -59 -5 -4 -109 -86 -230 -182 -121 -96 -227 -180 -235
-187 -14 -11 -179 -142 -275 -218 -21 -16 -142 -112 -269 -213 -127 -101 -377
-298 -556 -439 -179 -141 -329 -261 -335 -267 -5 -6 -39 -33 -75 -61 -36 -27
-67 -52 -70 -55 -3 -3 -23 -18 -45 -35 -22 -16 -42 -32 -45 -35 -3 -4 -26 -23
-51 -42 -26 -19 -53 -40 -60 -47 -8 -6 -39 -30 -69 -53 -30 -24 -57 -45 -60
-48 -3 -3 -61 -50 -130 -104 -69 -54 -141 -111 -160 -126 -74 -59 -549 -436
-620 -492 -41 -32 -82 -64 -90 -71 -8 -7 -82 -65 -165 -131 -82 -65 -170 -134
-194 -155 -24 -20 -54 -43 -65 -51 -12 -8 -30 -22 -41 -31 -27 -23 -494 -393
-566 -449 -72 -56 -603 -477 -680 -539 -75 -61 -107 -86 -214 -171 -49 -39
-103 -81 -120 -94 -205 -163 -465 -369 -565 -448 -161 -128 -150 -119 -186
-148 -17 -14 -45 -36 -64 -50 -18 -14 -41 -32 -50 -40 -10 -8 -86 -69 -170
-135 -83 -66 -191 -151 -238 -188 -48 -38 -102 -81 -121 -95 -18 -15 -81 -65
-140 -112 -59 -47 -121 -96 -139 -110 -18 -14 -43 -34 -56 -45 -13 -11 -103
-83 -201 -160 -171 -135 -434 -342 -465 -368 -8 -7 -114 -90 -235 -186 -215
-170 -260 -205 -336 -266 -84 -68 -108 -87 -189 -150 -47 -36 -86 -69 -87 -73
-1 -4 32 -34 73 -67 42 -33 84 -67 94 -75 9 -8 32 -26 50 -40 18 -14 38 -30
44 -35 6 -6 81 -67 166 -135 192 -154 168 -135 275 -222 50 -41 146 -119 215
-173 69 -55 127 -102 130 -105 3 -3 28 -24 55 -45 28 -22 52 -42 55 -45 4 -4
51 -42 190 -153 8 -7 98 -80 200 -162 102 -83 263 -213 359 -290 95 -77 239
-193 320 -259 80 -65 169 -136 196 -158 28 -22 59 -47 70 -56 11 -10 52 -42
90 -73 99 -80 403 -326 445 -360 19 -16 103 -83 185 -150 83 -66 168 -135 190
-153 56 -46 339 -273 465 -374 58 -47 107 -87 110 -91 3 -3 25 -21 50 -40 25
-19 52 -40 60 -47 34 -29 150 -123 220 -179 41 -32 77 -61 80 -65 3 -3 97 -79
210 -170 113 -90 210 -169 217 -175 7 -5 18 -15 25 -20 7 -6 72 -57 143 -115
72 -57 132 -107 135 -110 3 -3 48 -39 100 -79 52 -41 100 -79 105 -85 6 -6 78
-65 160 -130 83 -66 157 -125 165 -133 8 -7 47 -38 85 -69 39 -31 81 -66 95
-77 14 -12 81 -67 150 -122 69 -55 132 -105 140 -111 8 -7 58 -48 111 -91 105
-85 366 -296 406 -328 14 -11 66 -53 117 -94 50 -40 106 -85 124 -100 18 -14
39 -31 45 -36 7 -6 68 -56 137 -110 69 -55 127 -103 130 -106 3 -3 46 -38 95
-78 50 -39 106 -84 125 -100 19 -16 89 -72 155 -125 66 -53 129 -104 140 -113
11 -9 135 -109 275 -222 140 -113 264 -213 275 -223 17 -14 46 -37 125 -101
16 -13 293 -236 640 -516 113 -90 221 -179 241 -195 19 -17 53 -44 74 -61 22
-16 53 -42 70 -56 16 -14 79 -64 138 -112 l108 -87 35745 0 35746 0 46 38 c26
20 53 42 62 49 8 6 47 37 85 68 99 79 93 75 170 135 39 30 72 57 75 60 3 3 34
28 70 55 36 27 85 66 110 87 37 30 195 156 445 353 17 13 100 79 185 147 86
67 230 181 320 253 91 71 167 132 170 135 3 3 46 37 95 75 50 38 92 72 95 75
3 3 25 21 50 40 25 19 50 39 56 45 11 9 147 117 289 227 33 26 67 53 75 61 8
8 80 65 160 127 80 62 159 125 176 139 47 39 65 53 109 86 22 16 42 32 45 35
3 3 82 66 175 140 94 74 175 139 182 144 6 6 26 22 44 36 18 14 112 88 209
164 96 77 209 166 250 198 111 88 112 89 146 117 16 14 45 37 64 51 27 20 265
208 320 253 16 13 13 11 445 353 160 126 297 234 305 241 27 21 235 187 274
218 21 17 64 50 95 75 31 25 133 105 226 179 94 74 222 176 285 226 159 126
309 244 354 280 21 17 75 59 120 95 44 36 223 177 396 314 173 137 351 278
395 313 44 35 87 70 95 76 8 7 92 73 185 147 329 260 510 404 521 414 7 6 24
20 40 31 23 16 68 52 149 118 26 21 285 226 319 252 35 27 126 99 166 132 8 7
98 78 200 158 215 169 235 185 275 218 17 14 71 57 120 96 153 121 194 153
398 315 l199 158 -44 31 c-23 17 -45 34 -48 37 -3 3 -43 35 -90 71 -82 63
-409 318 -440 342 -52 42 -292 227 -325 251 -22 16 -42 32 -45 36 -3 3 -34 28
-70 55 -36 28 -72 55 -80 62 -30 24 -138 109 -170 133 -29 22 -89 69 -428 333
-52 39 -119 92 -151 117 -31 25 -72 56 -91 70 -18 14 -59 45 -90 70 -64 51
-91 72 -207 162 -279 217 -327 254 -337 263 -6 6 -29 23 -51 40 -48 35 -46 34
-115 88 -30 24 -107 84 -170 133 -63 49 -122 94 -130 101 -8 6 -82 64 -165
128 -82 64 -163 126 -180 139 -16 13 -109 85 -205 160 -190 147 -275 214
-1050 817 -283 221 -531 413 -550 427 -19 15 -110 86 -201 157 -92 72 -251
195 -354 275 -300 233 -449 349 -461 358 -5 5 -30 25 -55 43 -24 19 -194 151
-377 294 -184 143 -346 269 -361 280 -29 22 -376 292 -401 312 -8 7 -73 58
-145 113 -71 56 -197 153 -280 217 -82 64 -175 136 -205 159 -60 46 -349 272
-390 304 -14 11 -43 33 -65 50 -22 17 -47 37 -55 44 -9 7 -47 36 -85 65 -39
30 -72 57 -75 60 -3 4 -21 18 -40 31 -19 13 -37 27 -40 30 -3 3 -34 27 -70 55
-60 46 -139 107 -345 269 -44 34 -192 149 -330 256 -137 106 -256 198 -264
204 -9 7 -10446 10 -35754 11 l-35742 0 -46 -35z"/>
<path d="M59975 93263 c-71 -57 -153 -122 -181 -143 -28 -21 -57 -45 -65 -52
-8 -8 -32 -27 -54 -43 -22 -17 -76 -59 -121 -95 -44 -36 -98 -78 -119 -95 -71
-55 -190 -149 -195 -155 -3 -3 -34 -28 -70 -55 -35 -28 -71 -56 -80 -62 -8 -7
-53 -43 -100 -80 -373 -297 -531 -422 -565 -447 -22 -16 -42 -32 -45 -35 -3
-4 -36 -31 -75 -61 -94 -74 -103 -81 -139 -111 -17 -14 -85 -67 -151 -119 -66
-52 -122 -96 -125 -99 -3 -4 -21 -18 -42 -33 -20 -15 -42 -33 -50 -40 -7 -7
-31 -26 -53 -43 -22 -16 -49 -37 -60 -46 -11 -9 -72 -58 -135 -108 -63 -50
-122 -97 -130 -104 -9 -6 -33 -25 -55 -42 -22 -16 -46 -35 -53 -42 -8 -7 -30
-26 -50 -41 -21 -15 -62 -47 -93 -72 -125 -101 -415 -331 -718 -570 -122 -96
-232 -183 -244 -194 -12 -10 -38 -30 -57 -45 -19 -14 -37 -28 -40 -31 -3 -3
-36 -30 -75 -60 -38 -30 -72 -57 -75 -60 -3 -3 -68 -55 -145 -115 -77 -60
-145 -114 -152 -119 -7 -6 -18 -16 -25 -21 -105 -82 -204 -161 -208 -165 -3
-3 -23 -18 -45 -35 -22 -16 -42 -32 -45 -35 -3 -3 -25 -21 -50 -40 -25 -19
-47 -37 -50 -40 -3 -3 -23 -19 -45 -35 -22 -17 -42 -32 -45 -35 -3 -3 -48 -39
-100 -80 -134 -106 -130 -102 -164 -131 -17 -14 -85 -67 -151 -119 -66 -52
-127 -100 -135 -107 -8 -7 -112 -89 -230 -182 -118 -94 -219 -174 -225 -178
-5 -4 -98 -78 -205 -163 -107 -85 -202 -160 -210 -167 -8 -6 -46 -37 -85 -67
-38 -31 -74 -59 -80 -63 -8 -7 -257 -204 -315 -250 -69 -55 -243 -193 -271
-215 -33 -26 -84 -66 -584 -463 -132 -104 -267 -211 -300 -237 -33 -26 -65
-51 -70 -56 -6 -4 -87 -69 -180 -142 -93 -74 -177 -140 -185 -147 -13 -10
-162 -129 -275 -219 -16 -13 -210 -166 -430 -340 -220 -175 -423 -335 -451
-357 l-51 -40 0 -5888 0 -5887 116 -93 c64 -51 132 -107 151 -123 20 -17 51
-42 69 -56 19 -14 42 -32 51 -40 10 -8 33 -27 51 -42 19 -15 165 -132 324
-260 160 -128 441 -354 625 -502 184 -148 349 -281 365 -295 17 -14 49 -40 70
-57 70 -55 302 -242 340 -273 11 -9 99 -79 195 -156 96 -77 177 -142 180 -145
3 -3 28 -23 55 -45 28 -22 59 -47 70 -57 11 -9 211 -170 445 -357 234 -188
432 -347 440 -354 53 -43 204 -165 248 -200 30 -23 59 -47 65 -52 12 -11 295
-238 932 -750 171 -137 326 -262 346 -279 20 -17 96 -78 169 -136 72 -58 171
-137 218 -175 125 -102 440 -356 882 -710 212 -170 390 -314 396 -320 6 -5 26
-22 45 -36 19 -15 58 -46 88 -70 30 -24 68 -55 86 -69 48 -37 174 -139 220
-177 22 -19 45 -37 50 -41 12 -9 672 -540 695 -559 8 -7 103 -83 210 -169 253
-203 257 -206 283 -228 23 -19 55 -44 177 -141 41 -33 77 -62 80 -66 3 -3 178
-144 390 -314 212 -169 401 -321 420 -337 19 -16 40 -33 47 -38 6 -5 37 -30
68 -55 62 -51 56 -46 173 -139 147 -118 242 -194 422 -340 58 -47 296 -239
530 -427 234 -188 441 -354 460 -370 19 -16 123 -99 230 -185 107 -86 211
-169 230 -185 75 -60 168 -135 206 -165 21 -17 65 -53 97 -78 39 -32 62 -44
70 -38 12 8 299 242 607 492 85 69 252 205 370 301 118 96 224 181 235 191 11
9 101 82 200 162 99 80 198 160 219 178 21 18 67 56 101 83 34 28 143 115 241
194 98 80 181 147 184 151 3 3 61 51 130 105 69 55 127 102 130 105 3 3 113
93 245 200 132 107 245 199 251 205 6 5 28 24 49 40 33 25 180 145 250 203 11
9 65 53 120 97 55 44 102 82 105 85 3 3 28 24 55 45 28 22 52 42 55 45 3 3 52
43 110 89 58 47 107 87 110 90 3 4 61 51 130 106 69 55 134 108 145 117 11 9
99 81 195 159 96 78 193 156 215 174 38 32 113 93 145 118 16 14 127 104 290
236 58 47 112 91 120 98 48 39 263 214 301 245 43 35 309 251 339 275 8 6 44
35 80 65 36 29 87 71 114 93 142 116 179 145 270 219 54 45 126 104 161 131
112 90 270 219 275 225 3 3 25 21 50 40 25 19 47 37 50 40 3 3 28 23 55 45 28
21 59 47 70 57 11 9 118 97 238 194 119 97 217 181 218 187 1 7 2 3515 3 7797
l1 7785 -31 30 c-17 17 -40 37 -50 45 -11 8 -46 36 -79 62 -33 27 -253 201
-490 388 -236 187 -500 396 -585 464 -85 67 -344 272 -575 455 -231 183 -445
352 -475 377 -30 24 -59 48 -65 52 -36 28 -1009 799 -1130 895 -82 66 -163
130 -180 143 -16 13 -181 143 -365 289 -184 146 -346 274 -360 285 -14 11 -55
43 -91 72 -36 29 -81 65 -100 80 -19 15 -45 36 -59 47 -14 11 -117 93 -230
182 -113 89 -282 223 -376 298 -94 75 -186 147 -204 161 -18 14 -38 30 -44 35
-6 6 -54 44 -106 85 -52 41 -102 80 -110 87 -41 33 -307 243 -393 311 -54 42
-108 85 -120 96 -12 10 -38 30 -57 45 -19 14 -44 33 -55 43 -44 36 -194 155
-225 178 -18 14 -41 32 -50 40 -19 16 -24 20 -220 174 -74 59 -151 119 -170
135 -19 16 -84 67 -145 115 -60 48 -126 100 -145 115 -19 16 -73 59 -120 95
-47 37 -103 81 -124 99 -21 18 -60 48 -86 68 -52 39 -142 111 -150 119 -3 3
-25 21 -50 40 -25 19 -130 102 -235 185 -218 173 -488 388 -655 520 -231 183
-609 483 -770 610 -91 72 -169 134 -175 137 -5 3 -68 -41 -140 -99z"/>
<path d="M62478 58452 c-26 -20 -78 -62 -118 -92 -39 -30 -76 -60 -83 -65 -16
-14 -586 -467 -760 -604 -32 -25 -89 -70 -125 -99 -93 -74 -118 -94 -192 -152
-75 -59 -66 -52 -190 -151 -52 -41 -142 -113 -200 -158 -58 -45 -114 -90 -125
-99 -11 -9 -74 -60 -140 -112 -66 -52 -125 -99 -131 -105 -7 -5 -24 -19 -40
-30 -31 -22 -86 -67 -94 -75 -3 -3 -23 -19 -45 -36 -22 -16 -49 -37 -60 -46
-19 -16 -146 -116 -430 -342 -71 -56 -206 -163 -300 -237 -387 -308 -674 -536
-706 -561 -19 -14 -127 -100 -240 -190 -113 -89 -221 -174 -239 -188 -18 -14
-38 -30 -44 -35 -6 -6 -119 -96 -251 -200 -132 -104 -247 -195 -255 -202 -39
-31 -631 -500 -749 -593 -74 -58 -139 -110 -145 -115 -6 -6 -45 -37 -87 -70
-126 -99 -144 -114 -358 -283 -113 -89 -213 -168 -221 -175 -8 -7 -65 -51
-125 -99 -61 -48 -202 -161 -315 -250 -113 -90 -221 -174 -238 -188 -18 -14
-44 -34 -56 -45 -13 -11 -41 -33 -62 -50 -104 -81 -293 -230 -329 -260 -22
-18 -107 -86 -190 -150 -82 -65 -154 -122 -160 -127 -15 -13 -184 -147 -545
-432 -179 -142 -341 -270 -360 -286 -19 -15 -215 -171 -435 -345 -220 -174
-409 -324 -420 -333 -11 -9 -40 -33 -65 -52 -70 -54 -293 -230 -315 -249 -11
-9 -171 -135 -355 -281 -184 -146 -394 -312 -467 -370 -124 -99 -256 -203
-396 -313 -34 -27 -71 -56 -82 -66 -11 -9 -72 -57 -135 -106 -63 -49 -117 -92
-120 -95 -3 -3 -48 -39 -100 -80 -52 -41 -100 -79 -106 -85 -6 -5 -81 -65
-166 -132 l-155 -123 0 -15967 c-1 -11895 2 -15969 11 -15977 6 -6 42 -36 81
-66 38 -30 77 -60 85 -67 8 -7 44 -35 80 -63 36 -29 81 -64 100 -80 19 -15 76
-60 125 -99 50 -39 97 -77 105 -84 8 -6 112 -88 230 -182 118 -93 222 -175
230 -182 29 -23 127 -101 300 -238 96 -76 198 -157 226 -179 28 -23 66 -52 84
-66 18 -14 52 -40 74 -58 23 -18 48 -39 56 -45 83 -66 308 -244 317 -252 6 -5
24 -20 40 -32 15 -12 132 -103 258 -204 127 -100 256 -203 289 -228 32 -25 73
-58 90 -72 17 -14 132 -105 256 -203 124 -98 234 -185 245 -194 11 -9 52 -42
90 -72 104 -81 357 -282 380 -302 11 -9 48 -38 82 -65 64 -50 421 -331 623
-492 63 -51 130 -104 149 -119 19 -15 111 -88 205 -163 94 -74 290 -229 436
-345 145 -115 357 -282 470 -372 113 -89 243 -193 290 -230 47 -37 87 -69 90
-72 3 -3 23 -19 45 -36 42 -33 515 -407 575 -455 54 -43 365 -289 560 -443 96
-76 193 -153 215 -171 34 -28 82 -66 294 -233 19 -15 114 -90 210 -167 97 -77
284 -225 416 -330 132 -104 247 -195 255 -202 8 -6 139 -110 290 -230 151
-119 361 -285 465 -368 105 -83 201 -158 214 -167 23 -16 25 -15 120 61 53 42
177 141 276 220 99 78 189 150 200 159 12 9 50 39 85 67 86 66 86 66 155 122
33 27 222 177 420 333 198 156 362 287 365 290 7 7 84 68 165 130 39 29 72 56
75 60 3 3 25 21 50 40 49 38 323 255 355 282 29 24 353 279 384 303 14 11 51
40 82 65 30 25 71 57 90 71 19 15 124 98 234 186 110 87 319 253 465 368 146
115 270 214 276 220 7 5 80 64 164 130 84 66 255 201 379 300 125 99 252 199
282 222 30 23 63 50 74 60 11 10 38 31 60 47 22 17 42 33 45 36 3 3 25 21 50
40 25 19 52 40 60 47 15 12 389 308 465 368 21 17 61 48 89 71 28 23 141 112
251 199 110 88 257 204 326 259 70 56 218 173 329 261 111 88 212 168 224 177
11 10 26 21 31 26 6 4 53 41 105 82 52 41 163 129 246 195 83 66 168 134 189
150 21 17 75 59 120 95 45 36 99 79 120 95 32 24 215 170 275 218 8 7 58 46
110 87 52 41 102 80 110 87 8 7 56 44 105 83 50 40 106 84 125 100 67 53 186
148 410 324 124 98 241 190 260 206 67 55 118 96 195 155 43 33 83 65 89 70 6
6 54 44 106 85 52 41 100 79 105 83 6 5 93 74 195 155 l185 147 0 17877 c0
11904 -3 17882 -10 17890 -5 7 -28 26 -50 42 -22 17 -42 32 -45 36 -3 3 -21
17 -42 32 -20 15 -42 33 -50 40 -7 7 -44 38 -83 68 -38 30 -74 58 -80 62 -5 5
-50 41 -100 80 -49 39 -106 83 -125 98 -19 16 -107 85 -195 155 -88 70 -169
134 -180 143 -11 10 -49 40 -85 67 -36 28 -70 55 -76 60 -23 20 -90 73 -146
116 -48 38 -736 582 -998 791 -122 98 -662 525 -900 713 -111 88 -230 183
-264 210 -35 28 -78 62 -97 77 -51 40 -523 414 -690 547 -80 64 -161 127 -179
141 -18 14 -38 30 -44 35 -6 6 -31 26 -56 45 -25 19 -52 41 -60 47 -8 7 -152
121 -320 254 -168 132 -317 251 -332 263 -15 12 -96 76 -179 142 -136 107
-485 384 -549 435 -50 40 -94 75 -154 122 -33 26 -68 53 -76 60 -8 7 -80 64
-160 127 -80 63 -152 120 -160 127 -17 13 -244 193 -500 396 -91 72 -186 148
-211 168 l-46 38 -45 -37z"/>
</g>
</svg>
