<?xml version="1.0" encoding="UTF-8" standalone="no"?>
<svg
   xmlns:sketch="http://www.bohemiancoding.com/sketch/ns"
   xmlns:dc="http://purl.org/dc/elements/1.1/"
   xmlns:cc="http://creativecommons.org/ns#"
   xmlns:rdf="http://www.w3.org/1999/02/22-rdf-syntax-ns#"
   xmlns:svg="http://www.w3.org/2000/svg"
   xmlns="http://www.w3.org/2000/svg"
   xmlns:sodipodi="http://sodipodi.sourceforge.net/DTD/sodipodi-0.dtd"
   xmlns:inkscape="http://www.inkscape.org/namespaces/inkscape"
   width="140px"
   height="140px"
   viewBox="0 0 140 140"
   version="1.1"
   id="svg2"
   inkscape:version="0.91 r13725"
   sodipodi:docname="logo_gtg.svg">
  <metadata
     id="metadata55">
    <rdf:RDF>
      <cc:Work
         rdf:about="">
        <dc:format>image/svg+xml</dc:format>
        <dc:type
           rdf:resource="http://purl.org/dc/dcmitype/StillImage" />
      </cc:Work>
    </rdf:RDF>
  </metadata>
  <sodipodi:namedview
     pagecolor="#ffffff"
     bordercolor="#666666"
     borderopacity="1"
     objecttolerance="10"
     gridtolerance="10"
     guidetolerance="10"
     inkscape:pageopacity="0"
     inkscape:pageshadow="2"
     inkscape:window-width="1366"
     inkscape:window-height="715"
     id="namedview53"
     showgrid="false"
     inkscape:zoom="2.38396"
     inkscape:cx="66.422595"
     inkscape:cy="66.473485"
     inkscape:window-x="-8"
     inkscape:window-y="-8"
     inkscape:window-maximized="1"
     inkscape:current-layer="g13" />
  <!-- Generator: Sketch 3.3.3 (12081) - http://www.bohemiancoding.com/sketch -->
  <title
     id="title4">Logo</title>
  <desc
     id="desc6">Created with Sketch.</desc>
  <defs
     id="defs8" />
  <g
     id="Page-1"
     stroke="none"
     stroke-width="1"
     fill="none"
     fill-rule="evenodd"
     sketch:type="MSPage">
    <g
       id="Logo"
       sketch:type="MSArtboardGroup">
      <g
         id="Imported-EPS"
         sketch:type="MSLayerGroup">
        <g
           id="g13"
           sketch:type="MSShapeGroup">
          <path
             d="M9.07285333,120.642162 C8.14890667,121.616486 7.00344,122.025135 5.71976,122.025135 C4.45501333,122.025135 3.36066667,121.565405 2.52381333,120.727297 C1.32533333,119.531622 1.34426667,118.182703 1.34426667,115.840541 C1.34426667,113.50027 1.32533333,112.149459 2.52381333,110.953784 C3.36066667,110.115676 4.42093333,109.655946 5.71976,109.655946 C8.30416,109.655946 9.80746667,111.345405 10.15016,113.43027 L8.28712,113.43027 C7.97850667,112.10027 7.08864,111.311351 5.71976,111.311351 C5.00218667,111.311351 4.35277333,111.602703 3.92488,112.062432 C3.32658667,112.713243 3.19026667,113.396216 3.19026667,115.840541 C3.19026667,118.284865 3.32658667,118.982973 3.92488,119.633784 C4.35277333,120.095405 5.00218667,120.36973 5.71976,120.36973 C6.52442667,120.36973 7.22496,120.061351 7.70397333,119.514595 C8.14890667,119.001892 8.3212,118.387027 8.3212,117.601892 L8.3212,116.917027 L5.71976,116.917027 L5.71976,115.344865 L10.1672,115.344865 L10.1672,117.206486 C10.1672,118.778649 9.87562667,119.788919 9.07285333,120.642162"
             id="Fill-1"
             fill="#000000" />
          <path
             d="M17.4394933,121.058378 C16.8374133,121.66 16.1028,121.996757 15.1277333,121.996757 C14.1526667,121.996757 13.4066933,121.66 12.8046133,121.058378 C11.93936,120.191892 11.9639733,119.121081 11.9639733,117.641622 C11.9639733,116.164054 11.93936,115.093243 12.8046133,114.226757 C13.4066933,113.625135 14.1526667,113.29027 15.1277333,113.29027 C16.1028,113.29027 16.8374133,113.625135 17.4394933,114.226757 C18.3047467,115.093243 18.2914933,116.164054 18.2914933,117.641622 C18.2914933,119.121081 18.3047467,120.191892 17.4394933,121.058378 L17.4394933,121.058378 Z M13.1302667,111.004865 L14.46696,111.004865 L14.46696,112.508919 L13.1302667,112.508919 L13.1302667,111.004865 Z M16.19936,115.237027 C15.9589067,114.960811 15.58592,114.781081 15.1277333,114.781081 C14.6695467,114.781081 14.2852,114.960811 14.0447467,115.237027 C13.7190933,115.60027 13.6357867,115.995676 13.6357867,117.641622 C13.6357867,119.289459 13.7190933,119.686757 14.0447467,120.048108 C14.2852,120.324324 14.6695467,120.504054 15.1277333,120.504054 C15.58592,120.504054 15.9589067,120.324324 16.19936,120.048108 C16.5250133,119.686757 16.61968,119.289459 16.61968,117.641622 C16.61968,115.995676 16.5250133,115.60027 16.19936,115.237027 L16.19936,115.237027 Z M15.7904,111.004865 L17.1270933,111.004865 L17.1270933,112.508919 L15.7904,112.508919 L15.7904,111.004865 Z"
             id="Fill-2"
             fill="#000000" />
          <path
             d="M23.1611467,114.852973 L23.1611467,121.922973 L21.48744,121.922973 L21.48744,114.852973 L19.24952,114.852973 L19.24952,113.36027 L25.3990667,113.36027 L25.3990667,114.852973 L23.1611467,114.852973"
             id="Fill-3"
             fill="#000000" />
          <path
             d="M26.8853333,121.922973 L26.8853333,113.36027 L32.52936,113.36027 L32.52936,114.852973 L28.5571467,114.852973 L28.5571467,116.86027 L31.93864,116.86027 L31.93864,118.351081 L28.5571467,118.351081 L28.5571467,120.432162 L32.52936,120.432162 L32.52936,121.922973 L26.8853333,121.922973"
             id="Fill-4"
             fill="#000000" />
          <path
             d="M37.8780267,121.922973 L34.29016,121.922973 L34.29016,113.36027 L37.7341333,113.36027 C39.4059467,113.36027 40.3810133,114.298649 40.3810133,115.764865 C40.3810133,116.716486 39.7562133,117.329459 39.32264,117.535676 C39.83952,117.774054 40.5021867,118.315135 40.5021867,119.457838 C40.5021867,121.056486 39.4059467,121.922973 37.8780267,121.922973 M37.5997067,114.852973 L35.9638667,114.852973 L35.9638667,116.824324 L37.5997067,116.824324 C38.3116,116.824324 38.7073067,116.427027 38.7073067,115.838649 C38.7073067,115.25027 38.3116,114.852973 37.5997067,114.852973 M37.70952,118.328378 L35.9638667,118.328378 L35.9638667,120.432162 L37.70952,120.432162 C38.4668533,120.432162 38.82848,119.951622 38.82848,119.374595 C38.82848,118.797568 38.4668533,118.328378 37.70952,118.328378"
             id="Fill-5"
             fill="#000000" />
          <path
             d="M47.52456,121.056486 C46.92248,121.658108 46.1878667,121.994865 45.2128,121.994865 C44.2396267,121.994865 43.49176,121.658108 42.8915733,121.056486 C42.0244267,120.191892 42.04904,119.121081 42.04904,117.641622 C42.04904,116.164054 42.0244267,115.093243 42.8915733,114.226757 C43.49176,113.625135 44.2396267,113.29027 45.2128,113.29027 C46.1878667,113.29027 46.92248,113.625135 47.52456,114.226757 C48.3898133,115.093243 48.3784533,116.164054 48.3784533,117.641622 C48.3784533,119.121081 48.3898133,120.191892 47.52456,121.056486 M46.2844267,115.237027 C46.0439733,114.960811 45.6709867,114.781081 45.2128,114.781081 C44.7565067,114.781081 44.3702667,114.960811 44.1298133,115.237027 C43.8060533,115.598378 43.7208533,115.995676 43.7208533,117.641622 C43.7208533,119.289459 43.8060533,119.686757 44.1298133,120.046216 C44.3702667,120.324324 44.7565067,120.504054 45.2128,120.504054 C45.6709867,120.504054 46.0439733,120.324324 46.2844267,120.046216 C46.61008,119.686757 46.70664,119.289459 46.70664,117.641622 C46.70664,115.995676 46.61008,115.598378 46.2844267,115.237027"
             id="Fill-6"
             fill="#000000" />
          <path
             d="M54.7646667,121.922973 L53.09096,118.508108 L51.8868,118.508108 L51.8868,121.922973 L50.2130933,121.922973 L50.2130933,113.36027 L53.5718667,113.36027 C55.31752,113.36027 56.35128,114.55027 56.35128,115.982432 C56.35128,117.183784 55.61856,117.931081 54.7873867,118.23 L56.7015467,121.922973 L54.7646667,121.922973 L54.7646667,121.922973 Z M53.4639467,114.852973 L51.8868,114.852973 L51.8868,117.113784 L53.4639467,117.113784 C54.1966667,117.113784 54.6794667,116.644595 54.6794667,115.982432 C54.6794667,115.322162 54.1966667,114.852973 53.4639467,114.852973 L53.4639467,114.852973 Z"
             id="Fill-7"
             fill="#000000" />
          <path
             d="M63.4929333,121.022432 C62.8075467,121.73 61.9877333,121.994865 61.0732533,121.994865 C60.13416,121.994865 59.3654667,121.66 58.7633867,121.056486 C57.89624,120.191892 57.9208533,119.121081 57.9208533,117.641622 C57.9208533,116.164054 57.89624,115.093243 58.7633867,114.226757 C59.3654667,113.625135 60.11144,113.29027 61.0732533,113.29027 C63.05936,113.29027 64.0704,114.588108 64.2994933,116.02973 L62.6144267,116.02973 C62.4213067,115.225676 61.92904,114.781081 61.0732533,114.781081 C60.61696,114.781081 60.2439733,114.960811 60.0016267,115.237027 C59.6778667,115.598378 59.5926667,115.995676 59.5926667,117.641622 C59.5926667,119.289459 59.6778667,119.698108 60.0016267,120.059459 C60.2439733,120.337568 60.61696,120.504054 61.0732533,120.504054 C61.5787733,120.504054 61.9877333,120.324324 62.26416,120.023514 C62.54248,119.711351 62.6504,119.325405 62.6504,118.880811 L62.6504,118.555405 L61.0732533,118.555405 L61.0732533,117.161081 L64.3108533,117.161081 L64.3108533,118.411622 C64.3108533,119.648919 64.0950133,120.394324 63.4929333,121.022432"
             id="Fill-8"
             fill="#000000" />
          <path
             d="M68.49512,121.996757 C67.1944,121.996757 66.2079733,121.720541 65.36544,120.867297 L66.4484267,119.783243 C66.98992,120.324324 67.7245333,120.505946 68.51784,120.505946 C69.50616,120.505946 70.0344,120.133243 70.0344,119.446486 C70.0344,119.147568 69.9510933,118.894054 69.7693333,118.725676 C69.6008267,118.570541 69.4096,118.485405 69.012,118.424865 L67.9763467,118.281081 C67.2417333,118.173243 66.70024,117.944324 66.3158933,117.571622 C65.9069333,117.162973 65.7024533,116.610541 65.7024533,115.887838 C65.7024533,114.361081 66.8327733,113.29027 68.6863467,113.29027 C69.8658933,113.29027 70.72168,113.577838 71.4544,114.289189 L70.3960267,115.333514 C69.8545333,114.817027 69.2032267,114.745135 68.6390133,114.745135 C67.7472533,114.745135 67.3155733,115.238919 67.3155733,115.827297 C67.3155733,116.044865 67.3856267,116.273784 67.5673867,116.44027 C67.7358933,116.597297 68.01232,116.72973 68.3625867,116.777027 L69.3717333,116.922703 C70.1555733,117.030541 70.64784,117.246216 71.0094667,117.582973 C71.4676533,118.016216 71.6721333,118.640541 71.6721333,119.399189 C71.6721333,121.058378 70.2881067,121.996757 68.49512,121.996757"
             id="Fill-9"
             fill="#000000" />
          <path
             d="M77.9220267,121.922973 L76.2502133,118.508108 L75.0460533,118.508108 L75.0460533,121.922973 L73.37424,121.922973 L73.37424,113.36027 L76.73112,113.36027 C78.4767733,113.36027 79.5124267,114.55027 79.5124267,115.982432 C79.5124267,117.183784 78.7778133,117.931081 77.94664,118.23 L79.8608,121.922973 L77.9220267,121.922973 L77.9220267,121.922973 Z M76.6232,114.852973 L75.0460533,114.852973 L75.0460533,117.113784 L76.6232,117.113784 C77.35592,117.113784 77.83872,116.644595 77.83872,115.982432 C77.83872,115.322162 77.35592,114.852973 76.6232,114.852973 L76.6232,114.852973 Z"
             id="Fill-10"
             fill="#000000" />
          <path
             d="M81.3697867,121.922973 L81.3697867,113.36027 L87.0157067,113.36027 L87.0157067,114.852973 L83.0434933,114.852973 L83.0434933,116.86027 L86.4249867,116.86027 L86.4249867,118.351081 L83.0434933,118.351081 L83.0434933,120.432162 L87.0157067,120.432162 L87.0157067,121.922973 L81.3697867,121.922973"
             id="Fill-11"
             fill="#000000" />
          <path
             d="M94.0608,121.022432 C93.37352,121.73 92.5556,121.994865 91.64112,121.994865 C90.70392,121.994865 89.9352267,121.66 89.3312533,121.056486 C88.466,120.191892 88.4906133,119.121081 88.4906133,117.641622 C88.4906133,116.164054 88.466,115.093243 89.3312533,114.226757 C89.9352267,113.625135 90.6793067,113.29027 91.64112,113.29027 C93.6272267,113.29027 94.6382667,114.588108 94.86736,116.02973 L93.1804,116.02973 C92.9891733,115.225676 92.4969067,114.781081 91.64112,114.781081 C91.1829333,114.781081 90.8137333,114.960811 90.5713867,115.237027 C90.2457333,115.598378 90.1605333,115.995676 90.1605333,117.641622 C90.1605333,119.289459 90.2457333,119.698108 90.5713867,120.059459 C90.8137333,120.337568 91.1829333,120.504054 91.64112,120.504054 C92.1485333,120.504054 92.5556,120.324324 92.83392,120.023514 C93.1103467,119.711351 93.2163733,119.325405 93.2163733,118.880811 L93.2163733,118.555405 L91.64112,118.555405 L91.64112,117.161081 L94.8806133,117.161081 L94.8806133,118.411622 C94.8806133,119.648919 94.6609867,120.394324 94.0608,121.022432"
             id="Fill-12"
             fill="#000000" />
          <path
             d="M96.702,113.36027 L98.3757067,113.36027 L98.3757067,121.922973 L96.702,121.922973 L96.702,113.36027 Z"
             id="Fill-13"
             fill="#000000" />
          <path
             d="M105.683973,121.056486 C105.081893,121.658108 104.349173,121.994865 103.374107,121.994865 C102.39904,121.994865 101.653067,121.658108 101.050987,121.056486 C100.185733,120.191892 100.208453,119.121081 100.208453,117.641622 C100.208453,116.164054 100.185733,115.093243 101.050987,114.226757 C101.653067,113.625135 102.39904,113.29027 103.374107,113.29027 C104.349173,113.29027 105.081893,113.625135 105.683973,114.226757 C106.55112,115.093243 106.537867,116.164054 106.537867,117.641622 C106.537867,119.121081 106.55112,120.191892 105.683973,121.056486 M104.44384,115.237027 C104.203387,114.960811 103.8304,114.781081 103.374107,114.781081 C102.91592,114.781081 102.531573,114.960811 102.29112,115.237027 C101.965467,115.598378 101.880267,115.995676 101.880267,117.641622 C101.880267,119.289459 101.965467,119.686757 102.29112,120.046216 C102.531573,120.324324 102.91592,120.504054 103.374107,120.504054 C103.8304,120.504054 104.203387,120.324324 104.44384,120.046216 C104.769493,119.686757 104.866053,119.289459 104.866053,117.641622 C104.866053,115.995676 104.769493,115.598378 104.44384,115.237027"
             id="Fill-14"
             fill="#000000" />
          <path
             d="M113.44096,121.922973 L110.046213,116.667297 L110.046213,121.922973 L108.3744,121.922973 L108.3744,113.36027 L109.866347,113.36027 L113.2592,118.604595 L113.2592,113.36027 L114.932907,113.36027 L114.932907,121.922973 L113.44096,121.922973"
             id="Fill-15"
             fill="#000000" />
          <path
             d="M117.057227,121.922973 L117.057227,113.36027 L122.703147,113.36027 L122.703147,114.852973 L118.730933,114.852973 L118.730933,116.86027 L122.112427,116.86027 L122.112427,118.351081 L118.730933,118.351081 L118.730933,120.432162 L122.703147,120.432162 L122.703147,121.922973 L117.057227,121.922973"
             id="Fill-16"
             fill="#000000" />
          <path
             d="M129.530507,121.922973 L126.13576,116.667297 L126.13576,121.922973 L124.463947,121.922973 L124.463947,113.36027 L125.955893,113.36027 L129.348747,118.604595 L129.348747,113.36027 L131.022453,113.36027 L131.022453,121.922973 L129.530507,121.922973"
             id="Fill-17"
             fill="#000000" />
          <path
             d="M135.505867,121.996757 C134.205147,121.996757 133.21872,121.720541 132.376187,120.867297 L133.459173,119.783243 C134.000667,120.324324 134.73528,120.505946 135.53048,120.505946 C136.516907,120.505946 137.045147,120.133243 137.045147,119.446486 C137.045147,119.147568 136.959947,118.894054 136.78008,118.725676 C136.611573,118.570541 136.420347,118.485405 136.022747,118.424865 L134.987093,118.281081 C134.254373,118.173243 133.710987,117.944324 133.328533,117.571622 C132.91768,117.162973 132.7132,116.610541 132.7132,115.887838 C132.7132,114.361081 133.84352,113.29027 135.698987,113.29027 C136.878533,113.29027 137.732427,113.577838 138.465147,114.289189 L137.406773,115.333514 C136.86528,114.817027 136.213973,114.745135 135.64976,114.745135 C134.758,114.745135 134.32632,115.238919 134.32632,115.827297 C134.32632,116.044865 134.40016,116.273784 134.580027,116.44027 C134.74664,116.597297 135.023067,116.72973 135.37144,116.777027 L136.384373,116.922703 C137.16632,117.030541 137.66048,117.246216 138.020213,117.582973 C138.4784,118.016216 138.68288,118.640541 138.68288,119.399189 C138.68288,121.058378 137.298853,121.996757 135.505867,121.996757"
             id="Fill-18"
             fill="#000000" />
          <path
             d="M6.54336,127.57027 L6.54336,138.077838 L4.69546667,138.077838 L4.69546667,127.57027 L1.34426667,127.57027 L1.34426667,125.911081 L9.89456,125.911081 L9.89456,127.57027 L6.54336,127.57027"
             id="Fill-19"
             fill="#000000" />
          <path
             d="M10.83176,138.077838 L10.83176,129.515135 L16.4757867,129.515135 L16.4757867,131.007838 L12.5054667,131.007838 L12.5054667,133.015135 L15.88696,133.015135 L15.88696,134.505946 L12.5054667,134.505946 L12.5054667,136.587027 L16.4757867,136.587027 L16.4757867,138.077838 L10.83176,138.077838"
             id="Fill-20"
             fill="#000000" />
          <path
             d="M23.2217333,138.077838 L21.0197867,134.180541 L19.9121867,135.504865 L19.9121867,138.077838 L18.2403733,138.077838 L18.2403733,129.515135 L19.9121867,129.515135 L19.9121867,133.244054 L22.9339467,129.515135 L24.9673867,129.515135 L22.1273867,132.918649 L25.1718667,138.077838 L23.2217333,138.077838"
             id="Fill-21"
             fill="#000000" />
          <path
             d="M31.4350133,138.077838 L28.04216,132.822162 L28.04216,138.077838 L26.3684533,138.077838 L26.3684533,129.515135 L27.8604,129.515135 L31.2551467,134.759459 L31.2551467,129.515135 L32.92696,129.515135 L32.92696,138.077838 L31.4350133,138.077838"
             id="Fill-22"
             fill="#000000" />
          <path
             d="M35.05128,129.517027 L36.7230933,129.517027 L36.7230933,138.07973 L35.05128,138.07973 L35.05128,129.517027 Z"
             id="Fill-23"
             fill="#000000" />
          <path
             d="M41.2065067,138.151622 C39.90768,138.151622 38.91936,137.873514 38.0768267,137.02027 L39.1598133,135.938108 C39.7032,136.479189 40.43592,136.660811 41.23112,136.660811 C42.2175467,136.660811 42.74768,136.286216 42.74768,135.601351 C42.74768,135.300541 42.66248,135.048919 42.4826133,134.878649 C42.3141067,134.723514 42.1209867,134.64027 41.7233867,134.57973 L40.6896267,134.435946 C39.9550133,134.328108 39.41352,134.099189 39.02728,133.724595 C38.61832,133.315946 38.41384,132.763514 38.41384,132.042703 C38.41384,130.514054 39.5460533,129.445135 41.3996267,129.445135 C42.5791733,129.445135 43.4330667,129.732703 44.16768,130.442162 L43.1074133,131.488378 C42.56592,130.971892 41.9165067,130.9 41.3504,130.9 C40.4605333,130.9 40.02696,131.393784 40.02696,131.982162 C40.02696,132.197838 40.0989067,132.426757 40.2787733,132.595135 C40.4491733,132.752162 40.7237067,132.882703 41.0739733,132.931892 L42.0850133,133.077568 C42.86696,133.185405 43.36112,133.401081 43.7208533,133.737838 C44.17904,134.171081 44.38352,134.795405 44.38352,135.554054 C44.38352,137.213243 42.9994933,138.151622 41.2065067,138.151622"
             id="Fill-24"
             fill="#000000" />
          <path
             d="M51.06888,138.077838 L48.8669333,134.180541 L47.7593333,135.504865 L47.7593333,138.077838 L46.0856267,138.077838 L46.0856267,129.515135 L47.7593333,129.515135 L47.7593333,133.244054 L50.7810933,129.515135 L52.8145333,129.515135 L49.97264,132.918649 L53.0190133,138.077838 L51.06888,138.077838"
             id="Fill-25"
             fill="#000000" />
          <g
             id="Group-29"
             fill="#000000">
            <path
               d="M59.08904,138.077838 L58.58352,136.562432 L55.53904,136.562432 L55.02216,138.077838 L53.2765067,138.077838 L56.3929333,129.517027 L57.7050133,129.517027 L60.8346933,138.077838 L59.08904,138.077838 L59.08904,138.077838 Z M57.0915733,132.042703 L56.0085867,135.156757 L58.1385867,135.156757 L57.0915733,132.042703 L57.0915733,132.042703 Z"
               id="Fill-26" />
            <path
               d="M74.9097333,136.797027 C73.9857867,137.769459 72.8422133,138.181892 71.5585333,138.181892 C70.2937867,138.181892 69.19944,137.72027 68.3606933,136.882162 C67.1641067,135.686486 67.1811467,134.335676 67.1811467,131.995405 C67.1811467,129.653243 67.1641067,128.304324 68.3606933,127.108649 C69.19944,126.270541 70.2597067,125.808919 71.5585333,125.808919 C74.14104,125.808919 75.64624,127.50027 75.9889333,129.587027 L74.124,129.587027 C73.8153867,128.253243 72.9274133,127.466216 71.5585333,127.466216 C70.84096,127.466216 70.1896533,127.757568 69.76176,128.219189 C69.16536,128.868108 69.0271467,129.551081 69.0271467,131.995405 C69.0271467,134.43973 69.16536,135.13973 69.76176,135.788649 C70.1896533,136.25027 70.84096,136.522703 71.5585333,136.522703 C72.3613067,136.522703 73.0637333,136.216216 73.5408533,135.669459 C73.9857867,135.156757 74.15808,134.541892 74.15808,133.754865 L74.15808,133.071892 L71.5585333,133.071892 L71.5585333,131.49973 L76.00408,131.49973 L76.00408,133.361351 C76.00408,134.933514 75.7144,135.941892 74.9097333,136.797027"
               id="Fill-28" />
          </g>
          <path
             d="M81.4303733,134.568378 L81.4303733,138.07973 L79.7680267,138.07973 L79.7680267,134.568378 L77.1949867,129.517027 L79.0106933,129.517027 L80.61056,132.96973 L82.1877067,129.517027 L84.0053067,129.517027 L81.4303733,134.568378"
             id="Fill-30"
             fill="#000000" />
          <path
             d="M91.31736,138.077838 L91.31736,133.087027 L89.6796267,136.333514 L88.5493067,136.333514 L86.9002133,133.087027 L86.9002133,138.077838 L85.2265067,138.077838 L85.2265067,129.515135 L86.8756,129.515135 L89.1154133,134.146486 L91.34008,129.515135 L92.9910667,129.515135 L92.9910667,138.077838 L91.31736,138.077838"
             id="Fill-31"
             fill="#000000" />
          <path
             d="M100.24064,138.077838 L96.8477867,132.822162 L96.8477867,138.077838 L95.17408,138.077838 L95.17408,129.515135 L96.6660267,129.515135 L100.060773,134.759459 L100.060773,129.515135 L101.73448,129.515135 L101.73448,138.077838 L100.24064,138.077838"
             id="Fill-32"
             fill="#000000" />
          <path
             d="M108.790933,138.077838 L108.285413,136.562432 L105.23904,136.562432 L104.72216,138.077838 L102.9784,138.077838 L106.094827,129.517027 L107.405013,129.517027 L110.534693,138.077838 L108.790933,138.077838 L108.790933,138.077838 Z M106.791573,132.042703 L105.708587,135.156757 L107.838587,135.156757 L106.791573,132.042703 L106.791573,132.042703 Z"
             id="Fill-33"
             fill="#000000" />
          <path
             d="M114.079013,138.151622 C112.780187,138.151622 111.791867,137.873514 110.951227,137.02027 L112.034213,135.938108 C112.575707,136.479189 113.31032,136.660811 114.103627,136.660811 C115.090053,136.660811 115.620187,136.286216 115.620187,135.601351 C115.620187,135.300541 115.53688,135.048919 115.35512,134.878649 C115.186613,134.723514 114.995387,134.64027 114.597787,134.57973 L113.56024,134.435946 C112.82752,134.328108 112.286027,134.099189 111.90168,133.724595 C111.49272,133.315946 111.28824,132.763514 111.28824,132.042703 C111.28824,130.514054 112.41856,129.445135 114.272133,129.445135 C115.45168,129.445135 116.305573,129.732703 117.040187,130.442162 L115.97992,131.488378 C115.44032,130.971892 114.789013,130.9 114.222907,130.9 C113.33304,130.9 112.899467,131.393784 112.899467,131.982162 C112.899467,132.197838 112.973307,132.426757 113.153173,132.595135 C113.32168,132.752162 113.598107,132.882703 113.94648,132.931892 L114.959413,133.077568 C115.74136,133.185405 116.233627,133.401081 116.595253,133.737838 C117.05344,134.171081 117.256027,134.795405 117.256027,135.554054 C117.256027,137.213243 115.873893,138.151622 114.079013,138.151622"
             id="Fill-34"
             fill="#000000" />
          <path
             d="M118.960027,129.517027 L120.63184,129.517027 L120.63184,138.07973 L118.960027,138.07973 L118.960027,129.517027 Z"
             id="Fill-35"
             fill="#000000" />
          <path
             d="M125.776027,138.151622 C124.019013,138.151622 122.621733,136.961622 122.621733,135.143514 L122.621733,129.517027 L124.29544,129.517027 L124.29544,135.084865 C124.29544,136.070541 124.872907,136.660811 125.776027,136.660811 C126.679147,136.660811 127.269867,136.070541 127.269867,135.084865 L127.269867,129.517027 L128.93032,129.517027 L128.93032,135.143514 C128.93032,136.961622 127.534933,138.151622 125.776027,138.151622"
             id="Fill-36"
             fill="#000000" />
          <path
             d="M137.011067,138.077838 L137.011067,133.087027 L135.373333,136.333514 L134.243013,136.333514 L132.59392,133.087027 L132.59392,138.077838 L130.920213,138.077838 L130.920213,129.515135 L132.569307,129.515135 L134.807227,134.146486 L137.03568,129.515135 L138.684773,129.515135 L138.684773,138.077838 L137.011067,138.077838"
             id="Fill-37"
             fill="#000000" />
          <path
             d="M0.40328,0.329189189 L140.11424,0.329189189 L140.11424,105.007568 L0.40328,105.007568 L0.40328,0.329189189 Z"
             id="Fill-38"
             fill="#000000" />
          <path
             d="M106.269013,66.8178378 L106.269013,72.0905405 L118.747973,72.0905405 C118.963813,73.8272973 118.602187,89.0097297 108.662187,89.0097297 C98.8698667,89.0097297 97.5634667,76.3567568 97.5634667,66.587027 C97.5634667,57.1445946 100.106213,45.9578378 108.662187,45.9578378 C113.016853,45.9578378 115.266133,47.5981081 118.963813,49.9951351 L118.963813,45.7402703 C117.38856,43.2808108 114.715173,40.5602703 109.603173,40.2613514 L109.614533,40.2613514 L109.557733,40.2178378 L109.5388,0.327297297 L108.387653,0.327297297 L108.40848,40.2424324 C97.1204267,40.4524324 91.5332,54.4032432 91.5332,66.587027 C91.5332,66.6627027 91.5350933,66.7402703 91.5350933,66.8178378 L73.1224267,66.8178378 L73.1224267,47.4656757 L88.57392,47.4656757 L88.57392,41.667027 L51.6179467,41.667027 L51.6179467,47.4656757 L67.09216,47.4656757 L67.09216,66.8178378 L30.4694133,66.8178378 L30.4694133,72.0905405 L42.9483733,72.0905405 C43.1661067,73.8272973 42.8025867,89.0097297 32.86448,89.0097297 C23.0702667,89.0097297 21.76576,76.3567568 21.76576,66.587027 C21.76576,57.1445946 24.30472,45.9578378 32.86448,45.9578378 C37.2172533,45.9578378 39.4665333,47.5981081 43.1661067,49.9951351 L43.1661067,45.7402703 C41.4961867,43.1332432 38.5956,40.232973 32.86448,40.232973 C21.40224,40.232973 15.7354933,54.3105405 15.7354933,66.587027 L15.7354933,66.8178378 L15.7373867,66.8575676 L0.401386667,66.8575676 L0.401386667,68.0078378 L15.75064,68.0078378 C16.0138133,80.5681081 19.8610667,94.8121622 32.86448,94.8121622 C36.9521867,94.8121622 40.7237067,92.3981081 42.6416533,89.1762162 C42.6492267,89.1705405 42.6605867,89.162973 42.6662667,89.1572973 C42.84424,88.8735135 43.1604267,88.6843243 43.5220533,88.6843243 C43.90072,88.6843243 44.2320533,88.8924324 44.4043467,89.2008108 C44.4043467,89.2045946 44.4138133,89.2083784 44.4157067,89.2121622 L46.8221333,94.4508108 L48.46176,94.4508108 L48.46176,67.9681081 L67.09216,67.9681081 L67.09216,94.0648649 L73.1224267,94.0648649 L73.1224267,67.9681081 L91.5483467,67.9681081 C91.80584,80.5397297 95.64552,94.8121622 108.662187,94.8121622 C112.749893,94.8121622 116.521413,92.3981081 118.441253,89.1762162 C118.446933,89.1705405 118.460187,89.162973 118.463973,89.1572973 C118.64384,88.8735135 118.960027,88.6843243 119.31976,88.6843243 C119.698427,88.6843243 120.031653,88.8924324 120.202053,89.2008108 C120.203947,89.2045946 120.21152,89.2083784 120.215307,89.2121622 L122.621733,94.4508108 L124.259467,94.4508108 L124.259467,66.8178378 L106.269013,66.8178378"
             id="Fill-39"
             fill="#FFFFFF"
             style="fill:#f3f3f3;fill-opacity:1" />
        </g>
      </g>
    </g>
  </g>
</svg>
